<svg width="76" height="76" viewBox="0 0 76 76" fill="none" xmlns="http://www.w3.org/2000/svg">
<path d="M62.1071 34.2004C62.8062 34.2004 63.4816 34.4498 64.0084 34.9025C64.5353 35.3552 64.8779 35.9805 64.973 36.6628L65 37.0504V38.9504C65.0006 45.4242 62.5165 51.6587 58.0461 56.4033C53.5757 61.148 47.4496 64.0518 40.8967 64.5323L40.8929 73.1508C40.8926 73.8729 40.6142 74.568 40.1138 75.0957C39.6134 75.6233 38.9284 75.9441 38.1972 75.9934C37.4659 76.0426 36.743 75.8165 36.1744 75.3608C35.6058 74.9051 35.234 74.2538 35.1341 73.5384L35.1071 73.1508V64.5323C28.7101 64.0643 22.7136 61.2862 18.2677 56.7307C13.8217 52.1752 11.2392 46.1631 11.0154 39.8473L11 38.9504V37.0504C11.0002 36.3283 11.2787 35.6332 11.779 35.1056C12.2794 34.578 12.9644 34.2571 13.6957 34.2079C14.4269 34.1587 15.1499 34.3847 15.7184 34.8404C16.287 35.2961 16.6588 35.9475 16.7587 36.6628L16.7857 37.0504V38.9504C16.7853 44.0998 18.8058 49.0498 22.4246 52.7652C26.0435 56.4806 30.9803 58.6736 36.2026 58.8855L37.0357 58.9007H38.9643C44.191 58.9011 49.2154 56.9105 52.9866 53.3452C56.7579 49.78 58.9838 44.9162 59.1989 39.7713L59.2143 38.9504V37.0504C59.2143 36.2945 59.5191 35.5696 60.0616 35.0351C60.6041 34.5007 61.3399 34.2004 62.1071 34.2004ZM38 0C42.0919 0 46.0162 1.60144 48.9096 4.45203C51.8031 7.30261 53.4286 11.1688 53.4286 15.2002V38.0004C53.4286 42.0318 51.8031 45.898 48.9096 48.7486C46.0162 51.5992 42.0919 53.2006 38 53.2006C33.9081 53.2006 29.9838 51.5992 27.0904 48.7486C24.1969 45.898 22.5714 42.0318 22.5714 38.0004V15.2002C22.5714 11.1688 24.1969 7.30261 27.0904 4.45203C29.9838 1.60144 33.9081 0 38 0ZM38 5.70007C35.4426 5.70007 32.9899 6.70097 31.1815 8.48258C29.3731 10.2642 28.3571 12.6806 28.3571 15.2002V38.0004C28.3571 40.52 29.3731 42.9364 31.1815 44.718C32.9899 46.4996 35.4426 47.5005 38 47.5005C40.5574 47.5005 43.0101 46.4996 44.8185 44.718C46.6269 42.9364 47.6429 40.52 47.6429 38.0004V15.2002C47.6429 12.6806 46.6269 10.2642 44.8185 8.48258C43.0101 6.70097 40.5574 5.70007 38 5.70007Z" fill="#3A3A3A"/>
</svg>
